<mxfile host="app.diagrams.net" modified="2021-01-08T09:26:54.976Z" agent="5.0 (Windows NT 10.0; Win64; x64) AppleWebKit/537.36 (KHTML, like Gecko) Chrome/87.0.4280.88 Safari/537.36" etag="rXDybpEPPHx4W-q5nLhu" version="14.0.4" type="github">
  <diagram id="Xj1mY0OL6w24BHmhp5ah" name="Page-1">
    <mxGraphModel dx="1130" dy="1793" grid="1" gridSize="10" guides="1" tooltips="1" connect="1" arrows="1" fold="1" page="1" pageScale="1" pageWidth="827" pageHeight="1169" math="0" shadow="0">
      <root>
        <mxCell id="0" />
        <mxCell id="1" parent="0" />
        <mxCell id="h-uQiaIK6z8z8N9G2Rhi-1" value="&lt;font style=&quot;font-size: 14px&quot;&gt;gitlab oppo-prod-20201104&lt;/font&gt;" style="text;html=1;strokeColor=none;fillColor=none;align=center;verticalAlign=middle;whiteSpace=wrap;rounded=0;" vertex="1" parent="1">
          <mxGeometry x="80" y="200" width="220" height="40" as="geometry" />
        </mxCell>
        <mxCell id="h-uQiaIK6z8z8N9G2Rhi-2" value="" style="endArrow=classic;html=1;exitX=1;exitY=0.5;exitDx=0;exitDy=0;" edge="1" parent="1" source="h-uQiaIK6z8z8N9G2Rhi-1">
          <mxGeometry width="50" height="50" relative="1" as="geometry">
            <mxPoint x="380" y="240" as="sourcePoint" />
            <mxPoint x="600" y="220" as="targetPoint" />
          </mxGeometry>
        </mxCell>
        <mxCell id="h-uQiaIK6z8z8N9G2Rhi-4" style="edgeStyle=orthogonalEdgeStyle;rounded=0;orthogonalLoop=1;jettySize=auto;html=1;" edge="1" parent="1" source="h-uQiaIK6z8z8N9G2Rhi-3">
          <mxGeometry relative="1" as="geometry">
            <mxPoint x="600" y="100" as="targetPoint" />
          </mxGeometry>
        </mxCell>
        <mxCell id="h-uQiaIK6z8z8N9G2Rhi-3" value="&lt;font style=&quot;font-size: 14px&quot;&gt;github oppo-prod-20201104&lt;/font&gt;" style="text;html=1;strokeColor=none;fillColor=none;align=center;verticalAlign=middle;whiteSpace=wrap;rounded=0;" vertex="1" parent="1">
          <mxGeometry x="80" y="80" width="220" height="40" as="geometry" />
        </mxCell>
        <mxCell id="h-uQiaIK6z8z8N9G2Rhi-6" value="" style="shape=flexArrow;endArrow=classic;html=1;" edge="1" parent="1">
          <mxGeometry width="50" height="50" relative="1" as="geometry">
            <mxPoint x="400" y="200" as="sourcePoint" />
            <mxPoint x="400" y="120" as="targetPoint" />
          </mxGeometry>
        </mxCell>
        <mxCell id="h-uQiaIK6z8z8N9G2Rhi-8" style="edgeStyle=orthogonalEdgeStyle;rounded=0;orthogonalLoop=1;jettySize=auto;html=1;" edge="1" parent="1" source="h-uQiaIK6z8z8N9G2Rhi-7">
          <mxGeometry relative="1" as="geometry">
            <mxPoint x="890" y="-20" as="targetPoint" />
          </mxGeometry>
        </mxCell>
        <mxCell id="h-uQiaIK6z8z8N9G2Rhi-7" value="&lt;font style=&quot;font-size: 14px&quot;&gt;github master&lt;/font&gt;" style="text;html=1;strokeColor=none;fillColor=none;align=center;verticalAlign=middle;whiteSpace=wrap;rounded=0;" vertex="1" parent="1">
          <mxGeometry x="80" y="-40" width="220" height="40" as="geometry" />
        </mxCell>
        <mxCell id="h-uQiaIK6z8z8N9G2Rhi-9" value="" style="shape=flexArrow;endArrow=classic;html=1;" edge="1" parent="1">
          <mxGeometry width="50" height="50" relative="1" as="geometry">
            <mxPoint x="460" y="80" as="sourcePoint" />
            <mxPoint x="460" as="targetPoint" />
          </mxGeometry>
        </mxCell>
        <mxCell id="h-uQiaIK6z8z8N9G2Rhi-10" value="" style="endArrow=classic;html=1;" edge="1" parent="1">
          <mxGeometry width="50" height="50" relative="1" as="geometry">
            <mxPoint x="420" y="220" as="sourcePoint" />
            <mxPoint x="420" y="320" as="targetPoint" />
          </mxGeometry>
        </mxCell>
        <mxCell id="h-uQiaIK6z8z8N9G2Rhi-11" value="release" style="text;html=1;strokeColor=none;fillColor=none;align=center;verticalAlign=middle;whiteSpace=wrap;rounded=0;" vertex="1" parent="1">
          <mxGeometry x="370" y="320" width="90" height="20" as="geometry" />
        </mxCell>
        <mxCell id="h-uQiaIK6z8z8N9G2Rhi-12" value="" style="endArrow=classic;html=1;" edge="1" parent="1">
          <mxGeometry width="50" height="50" relative="1" as="geometry">
            <mxPoint x="790" y="-20" as="sourcePoint" />
            <mxPoint x="790" y="230" as="targetPoint" />
          </mxGeometry>
        </mxCell>
        <mxCell id="h-uQiaIK6z8z8N9G2Rhi-13" value="" style="endArrow=classic;html=1;" edge="1" parent="1">
          <mxGeometry width="50" height="50" relative="1" as="geometry">
            <mxPoint x="790" y="99.5" as="sourcePoint" />
            <mxPoint x="920" y="100" as="targetPoint" />
          </mxGeometry>
        </mxCell>
        <mxCell id="h-uQiaIK6z8z8N9G2Rhi-14" value="" style="endArrow=classic;html=1;" edge="1" parent="1" target="h-uQiaIK6z8z8N9G2Rhi-15">
          <mxGeometry width="50" height="50" relative="1" as="geometry">
            <mxPoint x="790" y="230" as="sourcePoint" />
            <mxPoint x="920" y="230.5" as="targetPoint" />
          </mxGeometry>
        </mxCell>
        <mxCell id="h-uQiaIK6z8z8N9G2Rhi-15" value="gitlab oppo-prod-20210131" style="text;html=1;strokeColor=none;fillColor=none;align=center;verticalAlign=middle;whiteSpace=wrap;rounded=0;" vertex="1" parent="1">
          <mxGeometry x="900" y="220.5" width="160" height="20" as="geometry" />
        </mxCell>
        <mxCell id="h-uQiaIK6z8z8N9G2Rhi-16" value="github oppo-prod-20210131" style="text;html=1;strokeColor=none;fillColor=none;align=center;verticalAlign=middle;whiteSpace=wrap;rounded=0;" vertex="1" parent="1">
          <mxGeometry x="920" y="90" width="160" height="20" as="geometry" />
        </mxCell>
        <mxCell id="h-uQiaIK6z8z8N9G2Rhi-17" value="" style="endArrow=classic;html=1;" edge="1" parent="1">
          <mxGeometry width="50" height="50" relative="1" as="geometry">
            <mxPoint x="550" y="220" as="sourcePoint" />
            <mxPoint x="550" y="320" as="targetPoint" />
          </mxGeometry>
        </mxCell>
        <mxCell id="h-uQiaIK6z8z8N9G2Rhi-18" value="release" style="text;html=1;strokeColor=none;fillColor=none;align=center;verticalAlign=middle;whiteSpace=wrap;rounded=0;" vertex="1" parent="1">
          <mxGeometry x="510" y="320" width="90" height="20" as="geometry" />
        </mxCell>
      </root>
    </mxGraphModel>
  </diagram>
</mxfile>
